<svg xmlns="http://www.w3.org/2000/svg" xmlns:xlink="http://www.w3.org/1999/xlink" version="1.1" data-diagram-type="DESCRIPTION" style="width:2729px;height:977px;background:#FFFFFF;" width="2729px" height="977px" viewBox="0 0 2729 977" zoomAndPan="magnify" preserveAspectRatio="none" contentStyleType="text/css"><?plantuml 1.2026.7beta3?><defs/><g><!--cluster sistema--><g class="cluster" data-qualified-name="sistema" id="ent0001" data-source-line="53"><path d="M13.5,11 L173.6748,11 A3.75,3.75 0 0 1 176.1748,13.5 L183.1748,33.2969 L2711.65,33.2969 A2.5,2.5 0 0 1 2714.15,35.7969 L2714.15,872.5 A2.5,2.5 0 0 1 2711.65,875 L13.5,875 A2.5,2.5 0 0 1 11,872.5 L11,13.5 A2.5,2.5 0 0 1 13.5,11" style="stroke:#000000;stroke-width:1;" fill="#FFFFFF"/><line x1="11" y1="33.2969" x2="183.1748" y2="33.2969" style="stroke:#000000;stroke-width:1;"/><text x="15" y="25.9951" fill="#000000" font-size="14" lengthAdjust="spacing" textLength="159.1748" font-weight="700" font-family="Verdana">Sistema Deu Branco</text></g><!--cluster front--><g class="cluster" data-qualified-name="sistema.front" id="ent0002" data-source-line="55"><path d="M37.5,478 L250.9199,478 A3.75,3.75 0 0 1 253.4199,480.5 L260.4199,500.2969 L1618.97,500.2969 A2.5,2.5 0 0 1 1621.47,502.7969 L1621.47,848.5 A2.5,2.5 0 0 1 1618.97,851 L37.5,851 A2.5,2.5 0 0 1 35,848.5 L35,480.5 A2.5,2.5 0 0 1 37.5,478" style="stroke:#1E88E5;stroke-width:1;" fill="#FFFFFF"/><line x1="35" y1="500.2969" x2="260.4199" y2="500.2969" style="stroke:#1E88E5;stroke-width:1;"/><text x="39" y="492.9951" fill="#0D47A1" font-size="14" lengthAdjust="spacing" textLength="212.4199" font-weight="700" font-family="Verdana">Frontend React (Vite + TS)</text><text x="805.3014" y="515.292" fill="#0D47A1" font-size="14" lengthAdjust="spacing" textLength="53.8672" font-style="italic" font-family="Verdana">«Front»</text></g><!--cluster back--><g class="cluster" data-qualified-name="sistema.back" id="ent0010" data-source-line="65"><path d="M1135.18,54 L1352.4349,54 A3.75,3.75 0 0 1 1354.9349,56.5 L1361.9349,76.2969 L2687.65,76.2969 A2.5,2.5 0 0 1 2690.15,78.7969 L2690.15,451.5 A2.5,2.5 0 0 1 2687.65,454 L1135.18,454 A2.5,2.5 0 0 1 1132.68,451.5 L1132.68,56.5 A2.5,2.5 0 0 1 1135.18,54" style="stroke:#43A047;stroke-width:1;" fill="#E8F5E9"/><line x1="1132.68" y1="76.2969" x2="1361.9349" y2="76.2969" style="stroke:#43A047;stroke-width:1;"/><text x="1136.68" y="68.9951" fill="#1B5E20" font-size="14" lengthAdjust="spacing" textLength="216.2549" font-weight="700" font-family="Verdana">Backend Spring Boot (Java)</text><text x="1876.6689" y="91.292" fill="#1B5E20" font-size="14" lengthAdjust="spacing" textLength="77.4922" font-style="italic" font-family="Verdana">«Backend»</text></g><!--cluster ctrl--><g class="cluster" data-qualified-name="sistema.back.ctrl" id="ent0012" data-source-line="68"><path d="M1189.84,283 L1267.9357,283 A3.75,3.75 0 0 1 1270.4357,285.5 L1277.4357,305.2969 L1625.6,305.2969 A2.5,2.5 0 0 1 1628.1,307.7969 L1628.1,419.5 A2.5,2.5 0 0 1 1625.6,422 L1189.84,422 A2.5,2.5 0 0 1 1187.34,419.5 L1187.34,285.5 A2.5,2.5 0 0 1 1189.84,283" style="stroke:#66BB6A;stroke-width:1;" fill="#FFFFFF"/><line x1="1187.34" y1="305.2969" x2="1277.4357" y2="305.2969" style="stroke:#66BB6A;stroke-width:1;"/><text x="1191.34" y="297.9951" fill="#000000" font-size="14" lengthAdjust="spacing" textLength="77.0957" font-weight="700" font-family="Verdana">controller</text><text x="1372.8372" y="320.292" fill="#000000" font-size="14" lengthAdjust="spacing" textLength="77.7656" font-style="italic" font-family="Verdana">«SubBack»</text></g><!--entity r--><g class="entity" data-qualified-name="sistema.front.r" id="ent0003" data-source-line="56"><path d="M53.5,722.06 L73.4043,722.06 A3.75,3.75 0 0 1 75.9043,724.56 L82.9043,744.3569 L161.0137,744.3569 A2.5,2.5 0 0 1 163.5137,746.8569 L163.5137,791.4506 A2.5,2.5 0 0 1 161.0137,793.9506 L53.5,793.9506 A2.5,2.5 0 0 1 51,791.4506 L51,724.56 A2.5,2.5 0 0 1 53.5,722.06" style="stroke:#42A5F5;stroke-width:1;" fill="#FFFFFF"/><line x1="51" y1="744.3569" x2="82.9043" y2="744.3569" style="stroke:#42A5F5;stroke-width:1;"/><text x="61" y="738.0551" fill="#000000" font-size="14" lengthAdjust="spacing" textLength="6.9043" font-weight="700" font-family="Verdana">r</text><text x="62" y="764.352" fill="#000000" font-size="14" lengthAdjust="spacing" textLength="80.5137" font-style="italic" font-family="Verdana">«SubFront»</text><text x="79.9614" y="780.6489" fill="#000000" font-size="14" lengthAdjust="spacing" textLength="44.5908" font-family="Verdana">routes</text></g><!--entity p--><g class="entity" data-qualified-name="sistema.front.p" id="ent0004" data-source-line="57"><path d="M286.01,658.06 L309.0315,658.06 A3.75,3.75 0 0 1 311.5315,660.56 L318.5315,680.3569 L393.5237,680.3569 A2.5,2.5 0 0 1 396.0237,682.8569 L396.0237,727.4506 A2.5,2.5 0 0 1 393.5237,729.9506 L286.01,729.9506 A2.5,2.5 0 0 1 283.51,727.4506 L283.51,660.56 A2.5,2.5 0 0 1 286.01,658.06" style="stroke:#42A5F5;stroke-width:1;" fill="#FFFFFF"/><line x1="283.51" y1="680.3569" x2="318.5315" y2="680.3569" style="stroke:#42A5F5;stroke-width:1;"/><text x="293.51" y="674.0551" fill="#000000" font-size="14" lengthAdjust="spacing" textLength="10.0215" font-weight="700" font-family="Verdana">p</text><text x="294.51" y="700.352" fill="#000000" font-size="14" lengthAdjust="spacing" textLength="80.5137" font-style="italic" font-family="Verdana">«SubFront»</text><text x="313.637" y="716.6489" fill="#000000" font-size="14" lengthAdjust="spacing" textLength="42.2598" font-family="Verdana">pages</text></g><!--entity c--><g class="entity" data-qualified-name="sistema.front.c" id="ent0005" data-source-line="58"><path d="M639.53,529.06 L660.8288,529.06 A3.75,3.75 0 0 1 663.3288,531.56 L670.3288,551.3569 L751.0251,551.3569 A2.5,2.5 0 0 1 753.5251,553.8569 L753.5251,598.4506 A2.5,2.5 0 0 1 751.0251,600.9506 L639.53,600.9506 A2.5,2.5 0 0 1 637.03,598.4506 L637.03,531.56 A2.5,2.5 0 0 1 639.53,529.06" style="stroke:#42A5F5;stroke-width:1;" fill="#FFFFFF"/><line x1="637.03" y1="551.3569" x2="670.3288" y2="551.3569" style="stroke:#42A5F5;stroke-width:1;"/><text x="647.03" y="545.0551" fill="#000000" font-size="14" lengthAdjust="spacing" textLength="8.2988" font-weight="700" font-family="Verdana">c</text><text x="650.0207" y="571.352" fill="#000000" font-size="14" lengthAdjust="spacing" textLength="80.5137" font-style="italic" font-family="Verdana">«SubFront»</text><text x="647.03" y="587.6489" fill="#000000" font-size="14" lengthAdjust="spacing" textLength="86.4951" font-family="Verdana">components</text></g><!--entity h--><g class="entity" data-qualified-name="sistema.front.h" id="ent0006" data-source-line="59"><path d="M641.52,763.06 L664.4868,763.06 A3.75,3.75 0 0 1 666.9868,765.56 L673.9868,785.3569 L749.0337,785.3569 A2.5,2.5 0 0 1 751.5337,787.8569 L751.5337,832.4506 A2.5,2.5 0 0 1 749.0337,834.9506 L641.52,834.9506 A2.5,2.5 0 0 1 639.02,832.4506 L639.02,765.56 A2.5,2.5 0 0 1 641.52,763.06" style="stroke:#42A5F5;stroke-width:1;" fill="#FFFFFF"/><line x1="639.02" y1="785.3569" x2="673.9868" y2="785.3569" style="stroke:#42A5F5;stroke-width:1;"/><text x="649.02" y="779.0551" fill="#000000" font-size="14" lengthAdjust="spacing" textLength="9.9668" font-weight="700" font-family="Verdana">h</text><text x="650.02" y="805.352" fill="#000000" font-size="14" lengthAdjust="spacing" textLength="80.5137" font-style="italic" font-family="Verdana">«SubFront»</text><text x="669.5742" y="821.6489" fill="#000000" font-size="14" lengthAdjust="spacing" textLength="41.4053" font-family="Verdana">hooks</text></g><!--entity fs--><g class="entity" data-qualified-name="sistema.front.fs" id="ent0007" data-source-line="60"><path d="M1141.95,662.06 L1169.3738,662.06 A3.75,3.75 0 0 1 1171.8738,664.56 L1178.8738,684.3569 L1249.4637,684.3569 A2.5,2.5 0 0 1 1251.9637,686.8569 L1251.9637,731.4506 A2.5,2.5 0 0 1 1249.4637,733.9506 L1141.95,733.9506 A2.5,2.5 0 0 1 1139.45,731.4506 L1139.45,664.56 A2.5,2.5 0 0 1 1141.95,662.06" style="stroke:#42A5F5;stroke-width:1;" fill="#FFFFFF"/><line x1="1139.45" y1="684.3569" x2="1178.8738" y2="684.3569" style="stroke:#42A5F5;stroke-width:1;"/><text x="1149.45" y="678.0551" fill="#000000" font-size="14" lengthAdjust="spacing" textLength="14.4238" font-weight="700" font-family="Verdana">fs</text><text x="1150.45" y="704.352" fill="#000000" font-size="14" lengthAdjust="spacing" textLength="80.5137" font-style="italic" font-family="Verdana">«SubFront»</text><text x="1159.7605" y="720.6489" fill="#000000" font-size="14" lengthAdjust="spacing" textLength="57.4424" font-family="Verdana">services</text></g><!--entity st--><g class="entity" data-qualified-name="sistema.front.st" id="ent0008" data-source-line="61"><path d="M876.02,528.91 L904.0454,528.91 A3.75,3.75 0 0 1 906.5454,531.41 L913.5454,551.2069 L1016.9438,551.2069 A2.5,2.5 0 0 1 1019.4438,553.7069 L1019.4438,614.5975 A2.5,2.5 0 0 1 1016.9438,617.0975 L876.02,617.0975 A2.5,2.5 0 0 1 873.52,614.5975 L873.52,531.41 A2.5,2.5 0 0 1 876.02,528.91" style="stroke:#42A5F5;stroke-width:1;" fill="#FFFFFF"/><line x1="873.52" y1="551.2069" x2="913.5454" y2="551.2069" style="stroke:#42A5F5;stroke-width:1;"/><text x="883.52" y="544.9051" fill="#000000" font-size="14" lengthAdjust="spacing" textLength="15.0254" font-weight="700" font-family="Verdana">st</text><text x="901.2251" y="571.202" fill="#000000" font-size="14" lengthAdjust="spacing" textLength="80.5137" font-style="italic" font-family="Verdana">«SubFront»</text><text x="921.0493" y="587.4989" fill="#000000" font-size="14" lengthAdjust="spacing" textLength="40.8652" font-family="Verdana">styles</text><text x="883.52" y="603.7957" fill="#000000" font-size="14" lengthAdjust="spacing" textLength="115.9238" font-family="Verdana">(Sass/Bootstrap)</text></g><!--entity t--><g class="entity" data-qualified-name="sistema.front.t" id="ent0009" data-source-line="62"><path d="M1495.46,662.06 L1515.1524,662.06 A3.75,3.75 0 0 1 1517.6524,664.56 L1524.6524,684.3569 L1602.9737,684.3569 A2.5,2.5 0 0 1 1605.4737,686.8569 L1605.4737,731.4506 A2.5,2.5 0 0 1 1602.9737,733.9506 L1495.46,733.9506 A2.5,2.5 0 0 1 1492.96,731.4506 L1492.96,664.56 A2.5,2.5 0 0 1 1495.46,662.06" style="stroke:#42A5F5;stroke-width:1;" fill="#FFFFFF"/><line x1="1492.96" y1="684.3569" x2="1524.6524" y2="684.3569" style="stroke:#42A5F5;stroke-width:1;"/><text x="1502.96" y="678.0551" fill="#000000" font-size="14" lengthAdjust="spacing" textLength="6.6924" font-weight="700" font-family="Verdana">t</text><text x="1503.96" y="704.352" fill="#000000" font-size="14" lengthAdjust="spacing" textLength="80.5137" font-style="italic" font-family="Verdana">«SubFront»</text><text x="1524.9327" y="720.6489" fill="#000000" font-size="14" lengthAdjust="spacing" textLength="38.5684" font-family="Verdana">types</text></g><!--entity cfg--><g class="entity" data-qualified-name="sistema.back.cfg" id="ent0011" data-source-line="66"><path d="M1151.18,146.06 L1188.5911,146.06 A3.75,3.75 0 0 1 1191.0911,148.56 L1198.0911,168.3569 L1240.2298,168.3569 A2.5,2.5 0 0 1 1242.7298,170.8569 L1242.7298,215.4506 A2.5,2.5 0 0 1 1240.2298,217.9506 L1151.18,217.9506 A2.5,2.5 0 0 1 1148.68,215.4506 L1148.68,148.56 A2.5,2.5 0 0 1 1151.18,146.06" style="stroke:#7E57C2;stroke-width:1;" fill="#EDE7F6"/><line x1="1148.68" y1="168.3569" x2="1198.0911" y2="168.3569" style="stroke:#7E57C2;stroke-width:1;"/><text x="1158.68" y="162.0551" fill="#4A148C" font-size="14" lengthAdjust="spacing" textLength="24.4111" font-weight="700" font-family="Verdana">cfg</text><text x="1159.68" y="188.352" fill="#4A148C" font-size="14" lengthAdjust="spacing" textLength="62.0498" font-style="italic" font-family="Verdana">«Config»</text><text x="1169.2845" y="204.6489" fill="#4A148C" font-size="14" lengthAdjust="spacing" textLength="42.8408" font-family="Verdana">config</text></g><!--entity srv--><g class="entity" data-qualified-name="sistema.back.srv" id="ent0014" data-source-line="72"><path d="M1496.83,187.06 L1534.1933,187.06 A3.75,3.75 0 0 1 1536.6933,189.56 L1543.6933,209.3569 L1601.5956,209.3569 A2.5,2.5 0 0 1 1604.0956,211.8569 L1604.0956,256.4506 A2.5,2.5 0 0 1 1601.5956,258.9506 L1496.83,258.9506 A2.5,2.5 0 0 1 1494.33,256.4506 L1494.33,189.56 A2.5,2.5 0 0 1 1496.83,187.06" style="stroke:#66BB6A;stroke-width:1;" fill="#FFFFFF"/><line x1="1494.33" y1="209.3569" x2="1543.6933" y2="209.3569" style="stroke:#66BB6A;stroke-width:1;"/><text x="1504.33" y="203.0551" fill="#000000" font-size="14" lengthAdjust="spacing" textLength="24.3633" font-weight="700" font-family="Verdana">srv</text><text x="1505.33" y="229.352" fill="#000000" font-size="14" lengthAdjust="spacing" textLength="77.7656" font-style="italic" font-family="Verdana">«SubBack»</text><text x="1519.1386" y="245.6489" fill="#000000" font-size="14" lengthAdjust="spacing" textLength="50.1484" font-family="Verdana">service</text></g><!--entity repo--><g class="entity" data-qualified-name="sistema.back.repo" id="ent0015" data-source-line="73"><path d="M1848.97,269.06 L1898.0091,269.06 A3.75,3.75 0 0 1 1900.5091,271.56 L1907.5091,291.3569 L1953.7356,291.3569 A2.5,2.5 0 0 1 1956.2356,293.8569 L1956.2356,338.4506 A2.5,2.5 0 0 1 1953.7356,340.9506 L1848.97,340.9506 A2.5,2.5 0 0 1 1846.47,338.4506 L1846.47,271.56 A2.5,2.5 0 0 1 1848.97,269.06" style="stroke:#66BB6A;stroke-width:1;" fill="#FFFFFF"/><line x1="1846.47" y1="291.3569" x2="1907.5091" y2="291.3569" style="stroke:#66BB6A;stroke-width:1;"/><text x="1856.47" y="285.0551" fill="#000000" font-size="14" lengthAdjust="spacing" textLength="36.0391" font-weight="700" font-family="Verdana">repo</text><text x="1857.47" y="311.352" fill="#000000" font-size="14" lengthAdjust="spacing" textLength="77.7656" font-style="italic" font-family="Verdana">«SubBack»</text><text x="1860.8025" y="327.6489" fill="#000000" font-size="14" lengthAdjust="spacing" textLength="71.1006" font-family="Verdana">repository</text></g><!--entity mdl--><g class="entity" data-qualified-name="sistema.back.mdl" id="ent0016" data-source-line="74"><path d="M2585.49,194.06 L2627.8982,194.06 A3.75,3.75 0 0 1 2630.3982,196.56 L2637.3982,216.3569 L2671.655,216.3569 A2.5,2.5 0 0 1 2674.155,218.8569 L2674.155,263.4506 A2.5,2.5 0 0 1 2671.655,265.9506 L2585.49,265.9506 A2.5,2.5 0 0 1 2582.99,263.4506 L2582.99,196.56 A2.5,2.5 0 0 1 2585.49,194.06" style="stroke:#FFA726;stroke-width:1;" fill="#FFF3E0"/><line x1="2582.99" y1="216.3569" x2="2637.3982" y2="216.3569" style="stroke:#FFA726;stroke-width:1;"/><text x="2592.99" y="210.0551" fill="#E65100" font-size="14" lengthAdjust="spacing" textLength="29.4082" font-weight="700" font-family="Verdana">mdl</text><text x="2593.99" y="236.352" fill="#E65100" font-size="14" lengthAdjust="spacing" textLength="59.165" font-style="italic" font-family="Verdana">«Model»</text><text x="2601.7761" y="252.6489" fill="#E65100" font-size="14" lengthAdjust="spacing" textLength="43.5928" font-family="Verdana">model</text></g><!--entity dto--><g class="entity" data-qualified-name="sistema.back.ctrl.dto" id="ent0013" data-source-line="69"><path d="M1496.83,342.21 L1536.162,342.21 A3.75,3.75 0 0 1 1538.662,344.71 L1545.662,364.5069 L1601.5956,364.5069 A2.5,2.5 0 0 1 1604.0956,367.0069 L1604.0956,395.3037 A2.5,2.5 0 0 1 1601.5956,397.8037 L1496.83,397.8037 A2.5,2.5 0 0 1 1494.33,395.3037 L1494.33,344.71 A2.5,2.5 0 0 1 1496.83,342.21" style="stroke:#66BB6A;stroke-width:1;" fill="#FFFFFF"/><line x1="1494.33" y1="364.5069" x2="1545.662" y2="364.5069" style="stroke:#66BB6A;stroke-width:1;"/><text x="1504.33" y="358.2051" fill="#000000" font-size="14" lengthAdjust="spacing" textLength="26.332" font-weight="700" font-family="Verdana">dto</text><text x="1505.33" y="384.502" fill="#000000" font-size="14" lengthAdjust="spacing" textLength="77.7656" font-style="italic" font-family="Verdana">«SubBack»</text></g><!--entity bd--><g class="entity" data-qualified-name="bd" id="ent0017" data-source-line="78"><path d="M2318.24,901.21 C2318.24,891.21 2390.6145,891.21 2390.6145,891.21 C2390.6145,891.21 2462.989,891.21 2462.989,901.21 L2462.989,942.8037 C2462.989,952.8037 2390.6145,952.8037 2390.6145,952.8037 C2390.6145,952.8037 2318.24,952.8037 2318.24,942.8037 L2318.24,901.21" style="stroke:#FBC02D;stroke-width:1;" fill="#FFFDE7"/><path d="M2318.24,901.21 C2318.24,911.21 2390.6145,911.21 2390.6145,911.21 C2390.6145,911.21 2462.989,911.21 2462.989,901.21" style="stroke:#FBC02D;stroke-width:1;" fill="none"/><text x="2328.24" y="928.2051" fill="#F57F17" font-size="14" lengthAdjust="spacing" textLength="80.7529" font-family="Verdana">PostgreSQL</text><text x="2328.24" y="944.502" fill="#F57F17" font-size="14" lengthAdjust="spacing" textLength="124.749" font-family="Verdana">(Banco de Dados)</text></g><!--link r to p--><g class="link" data-entity-1="ent0003" data-entity-2="ent0004" id="lnk18" data-source-line="85" data-link-type="dependency"><path d="M163.84,748.2969 C200.13,748.2969 242.07,726 278.34,726" style="stroke:#666666;stroke-width:1;stroke-dasharray:7,7;" fill="none" id="r-to-p"/><polygon points="283.34,726,274.34,722,278.34,726,274.34,730,283.34,726" fill="#666666" style="stroke:#666666;stroke-width:1;stroke-linejoin:miter;stroke-miterlimit:10;"/><text x="164.85" y="710.2104" fill="#444444" font-size="11" lengthAdjust="spacing" textLength="52.105" font-family="Verdana">renderiza</text><text x="158.59" y="723.0151" fill="#444444" font-size="11" lengthAdjust="spacing" textLength="64.625" font-family="Verdana">rotas ativas</text></g><!--link r to h--><g class="link" data-entity-1="ent0003" data-entity-2="ent0006" id="lnk19" data-source-line="86" data-link-type="dependency"><path d="M163.91,783.65 C276.31,783.65 521.35,783.65 633.7,783.65" style="stroke:#666666;stroke-width:1;stroke-dasharray:7,7;" fill="none" id="r-to-h"/><polygon points="638.7,783.65,629.7,779.65,633.7,783.65,629.7,787.65,638.7,783.65" fill="#666666" style="stroke:#666666;stroke-width:1;stroke-linejoin:miter;stroke-miterlimit:10;"/><text x="319.0327" y="794.8604" fill="#444444" font-size="11" lengthAdjust="spacing" textLength="75.2222" font-family="Verdana">verifica token</text><text x="312.3" y="807.6651" fill="#444444" font-size="11" lengthAdjust="spacing" textLength="88.6875" font-family="Verdana">de autenticação</text></g><!--link p to c--><g class="link" data-entity-1="ent0004" data-entity-2="ent0005" id="lnk20" data-source-line="88" data-link-type="dependency"><path d="M340.15,680.0269 C340.15,641.8669 340.15,565 340.15,565 C340.15,565 530.77,565 631.63,565" style="stroke:#666666;stroke-width:1;stroke-dasharray:7,7;" fill="none" id="p-to-c"/><polygon points="636.63,565,627.63,561,631.63,565,627.63,569,636.63,565" fill="#666666" style="stroke:#666666;stroke-width:1;stroke-linejoin:miter;stroke-miterlimit:10;"/><text x="375.885" y="576.2104" fill="#444444" font-size="11" lengthAdjust="spacing" textLength="54.3394" font-family="Verdana">constrói a</text><text x="365.03" y="589.0151" fill="#444444" font-size="11" lengthAdjust="spacing" textLength="76.0493" font-family="Verdana">interface com</text></g><!--link p to fs--><g class="link" data-entity-1="ent0004" data-entity-2="ent0007" id="lnk21" data-source-line="89" data-link-type="dependency"><path d="M396.26,696 C551.56,696 978.71,696 1134.12,696" style="stroke:#666666;stroke-width:1;stroke-dasharray:7,7;" fill="none" id="p-to-fs"/><polygon points="1139.12,696,1130.12,692,1134.12,696,1130.12,700,1139.12,696" fill="#666666" style="stroke:#666666;stroke-width:1;stroke-linejoin:miter;stroke-miterlimit:10;"/><text x="679.2354" y="707.2104" fill="#444444" font-size="11" lengthAdjust="spacing" textLength="79.1001" font-family="Verdana">solicita dados/</text><text x="670.69" y="720.0151" fill="#444444" font-size="11" lengthAdjust="spacing" textLength="96.1909" font-family="Verdana">envia formulários</text></g><!--link p to h--><g class="link" data-entity-1="ent0004" data-entity-2="ent0006" id="lnk22" data-source-line="90" data-link-type="dependency"><path d="M340.15,730.43 C340.15,751.29 340.15,773.35 340.15,773.35 C340.15,773.35 533.35,773.35 633.61,773.35" style="stroke:#666666;stroke-width:1;stroke-dasharray:7,7;" fill="none" id="p-to-h"/><polygon points="638.61,773.35,629.61,769.35,633.61,773.35,629.61,777.35,638.61,773.35" fill="#666666" style="stroke:#666666;stroke-width:1;stroke-linejoin:miter;stroke-miterlimit:10;"/><text x="481.2279" y="784.5604" fill="#444444" font-size="11" lengthAdjust="spacing" textLength="49.6934" font-family="Verdana">consome</text><text x="468.92" y="797.3651" fill="#444444" font-size="11" lengthAdjust="spacing" textLength="74.3091" font-family="Verdana">estado global</text></g><!--link c to st--><g class="link" data-entity-1="ent0005" data-entity-2="ent0008" id="lnk23" data-source-line="92" data-link-type="dependency"><path d="M753.86,565 C789.52,565 830.38,565 868.41,565" style="stroke:#666666;stroke-width:1;stroke-dasharray:7,7;" fill="none" id="c-to-st"/><polygon points="873.41,565,864.41,561,868.41,565,864.41,569,873.41,565" fill="#666666" style="stroke:#666666;stroke-width:1;stroke-linejoin:miter;stroke-miterlimit:10;"/><text x="728.3231" y="576.2104" fill="#444444" font-size="11" lengthAdjust="spacing" textLength="75.9258" font-family="Verdana">aplica classes</text><text x="719.63" y="589.0151" fill="#444444" font-size="11" lengthAdjust="spacing" textLength="93.312" font-family="Verdana">CSS/Sass globais</text></g><!--link h to fs--><g class="link" data-entity-1="ent0006" data-entity-2="ent0007" id="lnk24" data-source-line="93" data-link-type="dependency"><path d="M751.76,799 C882.75,799 1196.15,799 1196.15,799 C1196.15,799 1196.15,768.16 1196.15,739.18" style="stroke:#666666;stroke-width:1;stroke-dasharray:7,7;" fill="none" id="h-to-fs"/><polygon points="1196.15,734.18,1192.15,743.18,1196.15,739.18,1200.15,743.18,1196.15,734.18" fill="#666666" style="stroke:#666666;stroke-width:1;stroke-linejoin:miter;stroke-miterlimit:10;"/><text x="923.6105" y="810.2104" fill="#444444" font-size="11" lengthAdjust="spacing" textLength="56.0098" font-family="Verdana">encapsula</text><text x="897.37" y="823.0151" fill="#444444" font-size="11" lengthAdjust="spacing" textLength="108.4907" font-family="Verdana">chamadas externas</text></g><!--link fs to t--><g class="link" data-entity-1="ent0007" data-entity-2="ent0009" id="lnk25" data-source-line="94" data-link-type="dependency"><path d="M1252.11,698 C1318.09,698 1421.69,698 1487.72,698" style="stroke:#666666;stroke-width:1;stroke-dasharray:7,7;" fill="none" id="fs-to-t"/><polygon points="1492.72,698,1483.72,694,1487.72,698,1483.72,702,1492.72,698" fill="#666666" style="stroke:#666666;stroke-width:1;stroke-linejoin:miter;stroke-miterlimit:10;"/><text x="1301.41" y="709.2104" fill="#444444" font-size="11" lengthAdjust="spacing" textLength="70.877" font-family="Verdana">tipa retornos</text><text x="1306.9798" y="722.0151" fill="#444444" font-size="11" lengthAdjust="spacing" textLength="59.7373" font-family="Verdana">e payloads</text></g><!--link fs to ctrl--><g class="link" data-entity-1="ent0007" data-entity-2="ent0012" id="lnk26" data-source-line="98" data-link-type="dependency"><path d="M1220.15,684.0969 C1220.15,638.7119 1220.15,536.2075 1220.15,467.3462 C1220.15,458.7386 1220.15,450.3082 1220.15,442.1453 C1220.15,438.0639 1220.15,434.0493 1220.15,430.1128 C1220.15,428.1446 1220.15,426.1959 1220.15,424.2681 C1220.15,423.7862 1220.15,428.3056 1220.15,427.8263" style="stroke:#666666;stroke-width:1;stroke-dasharray:7,7;" fill="none" id="fs-to-ctrl"/><polygon points="1220.15,422.8263,1216.15,431.8263,1220.15,427.8263,1224.15,431.8263,1220.15,422.8263" fill="#666666" style="stroke:#666666;stroke-width:1;stroke-linejoin:miter;stroke-miterlimit:10;"/><text x="1117.15" y="500.4104" fill="#444444" font-size="11" lengthAdjust="spacing" textLength="102.5181" font-family="Verdana">realiza requisições</text><text x="1138.2369" y="513.2151" fill="#444444" font-size="11" lengthAdjust="spacing" textLength="60.3442" font-family="Verdana">HTTP/REST</text></g><!--link ctrl to srv--><g class="link" data-entity-1="ent0012" data-entity-2="ent0014" id="lnk27" data-source-line="101" data-link-type="dependency"><path d="M1196.15,282.8368 C1196.15,282.6491 1196.15,282.4615 1196.15,282.274 C1196.15,281.8991 1196.15,281.5247 1196.15,281.1508 C1196.15,279.6556 1196.15,278.1699 1196.15,276.6992 C1196.15,273.7578 1196.15,270.8761 1196.15,268.0973 C1196.15,262.5395 1196.15,257.3928 1196.15,253.0006 C1196.15,244.2162 1196.15,238.45 1196.15,238.45 C1196.15,238.45 1389.75,238.45 1489.05,238.45" style="stroke:#666666;stroke-width:1;stroke-dasharray:7,7;" fill="none" id="ctrl-to-srv"/><polygon points="1494.05,238.45,1485.05,234.45,1489.05,238.45,1485.05,242.45,1494.05,238.45" fill="#666666" style="stroke:#666666;stroke-width:1;stroke-linejoin:miter;stroke-miterlimit:10;"/><text x="1189.8519" y="249.6604" fill="#444444" font-size="11" lengthAdjust="spacing" textLength="99.1558" font-family="Verdana">delega validações</text><text x="1184.65" y="262.4651" fill="#444444" font-size="11" lengthAdjust="spacing" textLength="109.5596" font-family="Verdana">e regras de negócio</text></g><!--link ctrl to dto--><g class="link" data-entity-1="ent0012" data-entity-2="ent0013" id="lnk28" data-source-line="102" data-link-type="dependency"><path d="M1196.15,340.34 C1196.15,343.64 1196.15,370 1196.15,370 C1196.15,370 1389.75,370 1489.05,370" style="stroke:#666666;stroke-width:1;stroke-dasharray:7,7;" fill="none" id="ctrl-to-dto"/><polygon points="1494.05,370,1485.05,366,1489.05,370,1485.05,374,1494.05,370" fill="#666666" style="stroke:#666666;stroke-width:1;stroke-linejoin:miter;stroke-miterlimit:10;"/><text x="1250.27" y="381.2104" fill="#444444" font-size="11" lengthAdjust="spacing" textLength="79.2397" font-family="Verdana">converte JSON</text><text x="1259.2451" y="394.0151" fill="#444444" font-size="11" lengthAdjust="spacing" textLength="61.2896" font-family="Verdana">em objetos</text></g><!--link ctrl to mdl--><g class="link" data-entity-1="ent0012" data-entity-2="ent0016" id="lnk29" data-source-line="103" data-link-type="dependency"><path d="M1630.74,340.98 C1633.3278,340.98 1635.9214,340.98 1638.5207,340.98 C1643.7192,340.98 1648.9403,340.98 1654.1827,340.98 C1738.0613,340.98 1827.3872,340.98 1916.6263,340.98 C2273.5825,340.98 2629.15,340.98 2629.15,340.98 C2629.15,340.98 2629.15,303.71 2629.15,271.34" style="stroke:#666666;stroke-width:1;stroke-dasharray:7,7;" fill="none" id="ctrl-to-mdl"/><polygon points="2629.15,266.34,2625.15,275.34,2629.15,271.34,2633.15,275.34,2629.15,266.34" fill="#666666" style="stroke:#666666;stroke-width:1;stroke-linejoin:miter;stroke-miterlimit:10;"/><text x="1839.78" y="352.1904" fill="#444444" font-size="11" lengthAdjust="spacing" textLength="109.0439" font-family="Verdana">manipula entidades</text><text x="1845.989" y="364.9951" fill="#444444" font-size="11" lengthAdjust="spacing" textLength="96.626" font-family="Verdana">temporariamente</text></g><!--link dto to mdl--><g class="link" data-entity-1="ent0013" data-entity-2="ent0016" id="lnk30" data-source-line="105" data-link-type="dependency"><path d="M1550.15,364.0169 C1550.15,331.8069 1550.15,261.28 1550.15,261.28 C1550.15,261.28 2371.74,261.28 2577.58,261.28" style="stroke:#666666;stroke-width:1;stroke-dasharray:7,7;" fill="none" id="dto-to-mdl"/><polygon points="2582.58,261.28,2573.58,257.28,2577.58,261.28,2573.58,265.28,2582.58,261.28" fill="#666666" style="stroke:#666666;stroke-width:1;stroke-linejoin:miter;stroke-miterlimit:10;"/><text x="2030.3458" y="272.4904" fill="#444444" font-size="11" lengthAdjust="spacing" textLength="93.8599" font-family="Verdana">mapeia atributos</text><text x="2027.15" y="285.2951" fill="#444444" font-size="11" lengthAdjust="spacing" textLength="100.2515" font-family="Verdana">de/para entidades</text></g><!--link srv to repo--><g class="link" data-entity-1="ent0014" data-entity-2="ent0015" id="lnk31" data-source-line="107" data-link-type="dependency"><path d="M1604.36,237.32 C1699.21,237.32 1883.15,237.32 1883.15,237.32 C1883.15,237.32 1883.15,247.69 1883.15,263.78" style="stroke:#666666;stroke-width:1;stroke-dasharray:7,7;" fill="none" id="srv-to-repo"/><polygon points="1883.15,268.78,1887.15,259.78,1883.15,263.78,1879.15,259.78,1883.15,268.78" fill="#666666" style="stroke:#666666;stroke-width:1;stroke-linejoin:miter;stroke-miterlimit:10;"/><text x="1662.49" y="248.5304" fill="#444444" font-size="11" lengthAdjust="spacing" textLength="96.8032" font-family="Verdana">aciona operações</text><text x="1668.9246" y="261.3351" fill="#444444" font-size="11" lengthAdjust="spacing" textLength="83.9341" font-family="Verdana">de persistência</text></g><!--link srv to mdl--><g class="link" data-entity-1="ent0014" data-entity-2="ent0016" id="lnk32" data-source-line="108" data-link-type="dependency"><path d="M1604.23,215.69 C1792.49,215.69 2403.96,215.69 2577.65,215.69" style="stroke:#666666;stroke-width:1;stroke-dasharray:7,7;" fill="none" id="srv-to-mdl"/><polygon points="2582.65,215.69,2573.65,211.69,2577.65,215.69,2573.65,219.69,2582.65,215.69" fill="#666666" style="stroke:#666666;stroke-width:1;stroke-linejoin:miter;stroke-miterlimit:10;"/><text x="2000.7381" y="226.9004" fill="#444444" font-size="11" lengthAdjust="spacing" textLength="80.8242" font-family="Verdana">valida domínio</text><text x="1989.44" y="239.7051" fill="#444444" font-size="11" lengthAdjust="spacing" textLength="103.4204" font-family="Verdana">(Jogador, Questao)</text></g><!--link repo to mdl--><g class="link" data-entity-1="ent0015" data-entity-2="ent0016" id="lnk33" data-source-line="110" data-link-type="dependency"><path d="M1920.15,290.9869 C1920.15,290.9869 2420.65,263.62 2577.64,263.62" style="stroke:#666666;stroke-width:1;stroke-dasharray:7,7;" fill="none" id="repo-to-mdl"/><polygon points="2582.64,263.62,2573.64,259.62,2577.64,263.62,2573.64,267.62,2582.64,263.62" fill="#666666" style="stroke:#666666;stroke-width:1;stroke-linejoin:miter;stroke-miterlimit:10;"/><text x="2158.0968" y="274.8304" fill="#444444" font-size="11" lengthAdjust="spacing" textLength="84.8311" font-family="Verdana">mapeia tabelas</text><text x="2152.86" y="287.6351" fill="#444444" font-size="11" lengthAdjust="spacing" textLength="95.3047" font-family="Verdana">via JPA/Hibernate</text></g><!--link repo to bd--><g class="link" data-entity-1="ent0015" data-entity-2="ent0017" id="lnk34" data-source-line="111" data-link-type="dependency"><path d="M1902.15,341.3 C1902.15,473.55 1902.15,922 1902.15,922 C1902.15,922 2176.58,922 2312.75,922" style="stroke:#666666;stroke-width:1;stroke-dasharray:7,7;" fill="none" id="repo-to-bd"/><polygon points="2317.75,922,2308.75,918,2312.75,922,2308.75,926,2317.75,922" fill="#666666" style="stroke:#666666;stroke-width:1;stroke-linejoin:miter;stroke-miterlimit:10;"/><text x="1839.0482" y="850.6604" fill="#444444" font-size="11" lengthAdjust="spacing" textLength="44.1182" font-family="Verdana">executa</text><text x="1820.15" y="863.4651" fill="#444444" font-size="11" lengthAdjust="spacing" textLength="81.9146" font-family="Verdana">comandos SQL</text></g><?plantuml-src bLVDSjis4BxpARRfeVQqiIr7FwudzGmbKOayiUM8Iaw-G2GaeIO15e2KE9aSEZtqETeUCjEPdZ9z0hrOFv2KHCkENVCW3XVVxc8N-orMtzWPJpbb2HFII_Z4abManNHcAHQQHrOewPah8JEcMKePYwxOb8VsEk4qKKdCTMKr4PBRwuoJqdQcAWjcncBrBcLP9kIK9YmntFE-8t-USccPZ1KfuYPZoy_CIHHDkMO9EMMAcIQDHQ4LCMN8ylTMcOfngM9kU4P71nMXPlBA2Mk71yxJJ__x0RWpEE_rNxmP-ilVbxyDwCLm-Mklt_6f6s1f68GKK12E-gy6uUCiRtPtKQIHFdg4fuslgLPp6NTKelJpvpsjfEKoFZcXRuDdlSDUjy0fZNnNCGvG2uwEWaOEw46qlNpGhRVyMhvyjpCdMFawwZM27s_xga3gp_o3UclRMmLGQpS2vFph_iBvUBsvNlxSTbZ5r0_zHgznlq4dUy3U2j9ijjjD_nvpPoYdf3JsB3YuRQm2y5k7pUrSh9U3PgDsS5ycEafEn3I7TeDMhtdRrGRH2Xgjpk6shyrwtQ_LZphU9wzIPLrcsPYPhvHP7Y3yRdk5lDqvEEpUz0LfezMhjMvwO5ghTwNv4jRCdstbUlwifQ7umAbMSyOUoKqGR_Xc16uwDbxudS48VDm9--4eE7EoDzGU-kUTmUxZ39TzZPw4mbYUCkhoERNHH2BrX9WXKuhB2aF8UInhjHLZQSXPP6ddhR2SlgTHk9khJzmoRLXPPEo61HoCvIP7Qweou3Oqms-1p1v0HYhDb4H7BU3H0_2PKbS5SlO0qd2z414tL8Hd7eAx-y9SofsG6RFVLieQgrbM9CVO1xJTbL9iwmxafwsJA5iHXPbsTutpHJkdRC4APsCiKxLXVRmhQuvLHSOcKzhGR0szKyTgbIHS5tfM9rJjEnitDzHYMzGNtbNu6lpf7fVb6HGvr8ixzJVbnJDbX5NwkYWnVDwlaBesbcFJs8LIjhKovyXwlEekJowKiLFDmzUlSC9jnncAERfFh4oPzFZHF3_pBmB_B3WV3HpHXy4hlzCVd1UI4AAmC-oF-cyVUmK3_VJfK-eby_UA-g2ibjYieZL_iUffsjix0RUEaIQ9jYW-i4kfbKKap8e5CoLY1iG2onCHCOnDAAXBm8c1oD92jloy_4jvNWOmq17Gg18K_lAB85WKpls4HHpYT8K2bOx9g4H4mhhP1pdSlmI35u9XtjBfF5d-eGNcdn8_Awsgb0DcB1HecgWnIpmlodS9UXqJonAtoIW1_nmHEs6uxxXOO8NnPXNtN4OiC_C4UuncB6Kn0iVGXLmXT21ofBDgHSQG8rILL32ACP9T9uh5PfNdZahdSfK9LnH3Zf-T8ji2mnscgT5kdlJlg8iUk_nJHeYK5ODXp8eH48CSNfh6FCMWM3HJnEcuNEvdBnzPzuf4E-wvisC9JWxlN-R226pXNnVvoz7eOj-v_Mejh3g8srLkAxVg67QC418-PRI0wPYjJ7Buc6h7OawIJvTV8g4gcexR-I6XLd0hd8Q3S-WWal7Ft4soAwJ3EguTKygao91_SdM46d1ESFra2aaG-OICyTcPtTBAkCkTrM8yj-v0OhwVvszj1dStmiXryWw0mi1U9IELOU1UnOCmyEcklENVxZXMIXjNHVn8LhhyHme5sf-gAKfF_q2lvwuArQxdvHxksY7w1aSXNkP5VNhXxxyKOrTSY6gjSuAcuKhnFO_crXMYIjt_14FeCly1?></g></svg>