<svg xmlns="http://www.w3.org/2000/svg" xmlns:xlink="http://www.w3.org/1999/xlink" version="1.1" data-diagram-type="DESCRIPTION" style="width:811px;height:1051px;background:#FFFFFF;" width="811px" height="1051px" viewBox="0 0 811 1051" zoomAndPan="magnify" preserveAspectRatio="none" contentStyleType="text/css"><?plantuml 1.2026.7beta3?><defs/><g><g class="title" data-source-line="10"><text x="196.2222" y="22.9951" fill="#000000" font-size="14" lengthAdjust="spacing" textLength="412.0293" font-weight="700" font-family="Arial">Diagrama de Implantação UML - Sistema DeuBranco</text></g><!--cluster PC1--><g class="cluster" data-qualified-name="PC1" id="ent0001" data-source-line="13"><polygon points="16,53.2969,26,43.2969,360,43.2969,360,297.1869,350,307.1869,16,307.1869,16,53.2969" fill="#E3F2FD" style="stroke:#181818;stroke-width:1;stroke-linejoin:miter;stroke-miterlimit:10;"/><line x1="350" y1="53.2969" x2="360" y2="43.2969" style="stroke:#181818;stroke-width:1;"/><line x1="16" y1="53.2969" x2="350" y2="53.2969" style="stroke:#181818;stroke-width:1;"/><line x1="350" y1="53.2969" x2="350" y2="307.1869" style="stroke:#181818;stroke-width:1;"/><text x="149.3384" y="69.292" fill="#000000" font-size="14" lengthAdjust="spacing" textLength="69.3232" font-weight="700" font-family="Arial">«device»</text><text x="96.4829" y="85.5889" fill="#000000" font-size="14" lengthAdjust="spacing" textLength="175.0342" font-weight="700" font-family="Arial">Estação de Trabalho 1</text><text x="68.8657" y="101.8857" fill="#000000" font-size="14" lengthAdjust="spacing" textLength="230.2686" font-weight="700" font-family="Arial">(Windows 10 / Ubuntu 22.04)</text></g><!--cluster Nav1--><g class="cluster" data-qualified-name="PC1.Nav1" id="ent0002" data-source-line="14"><polygon points="48,141.2969,58,131.2969,320,131.2969,320,265.1869,310,275.1869,48,275.1869,48,141.2969" fill="#B3E5FC" style="stroke:#181818;stroke-width:1;stroke-linejoin:miter;stroke-miterlimit:10;"/><line x1="310" y1="141.2969" x2="320" y2="131.2969" style="stroke:#181818;stroke-width:1;"/><line x1="48" y1="141.2969" x2="310" y2="141.2969" style="stroke:#181818;stroke-width:1;"/><line x1="310" y1="141.2969" x2="310" y2="275.1869" style="stroke:#181818;stroke-width:1;"/><text x="81.9316" y="157.292" fill="#000000" font-size="14" lengthAdjust="spacing" textLength="196.1367" font-weight="700" font-family="Arial">«executionEnvironment»</text><text x="117.1846" y="173.5889" fill="#000000" font-size="14" lengthAdjust="spacing" textLength="125.6309" font-weight="700" font-family="Arial">Navegador Web</text></g><!--cluster PC2--><g class="cluster" data-qualified-name="PC2" id="ent0004" data-source-line="19"><polygon points="400,53.2969,410,43.2969,744,43.2969,744,297.1869,734,307.1869,400,307.1869,400,53.2969" fill="#E3F2FD" style="stroke:#181818;stroke-width:1;stroke-linejoin:miter;stroke-miterlimit:10;"/><line x1="734" y1="53.2969" x2="744" y2="43.2969" style="stroke:#181818;stroke-width:1;"/><line x1="400" y1="53.2969" x2="734" y2="53.2969" style="stroke:#181818;stroke-width:1;"/><line x1="734" y1="53.2969" x2="734" y2="307.1869" style="stroke:#181818;stroke-width:1;"/><text x="533.3384" y="69.292" fill="#000000" font-size="14" lengthAdjust="spacing" textLength="69.3232" font-weight="700" font-family="Arial">«device»</text><text x="480.4829" y="85.5889" fill="#000000" font-size="14" lengthAdjust="spacing" textLength="175.0342" font-weight="700" font-family="Arial">Estação de Trabalho 2</text><text x="452.8657" y="101.8857" fill="#000000" font-size="14" lengthAdjust="spacing" textLength="230.2686" font-weight="700" font-family="Arial">(Windows 10 / Ubuntu 22.04)</text></g><!--cluster Nav2--><g class="cluster" data-qualified-name="PC2.Nav2" id="ent0005" data-source-line="20"><polygon points="432,141.2969,442,131.2969,704,131.2969,704,265.1869,694,275.1869,432,275.1869,432,141.2969" fill="#B3E5FC" style="stroke:#181818;stroke-width:1;stroke-linejoin:miter;stroke-miterlimit:10;"/><line x1="694" y1="141.2969" x2="704" y2="131.2969" style="stroke:#181818;stroke-width:1;"/><line x1="432" y1="141.2969" x2="694" y2="141.2969" style="stroke:#181818;stroke-width:1;"/><line x1="694" y1="141.2969" x2="694" y2="275.1869" style="stroke:#181818;stroke-width:1;"/><text x="465.9316" y="157.292" fill="#000000" font-size="14" lengthAdjust="spacing" textLength="196.1367" font-weight="700" font-family="Arial">«executionEnvironment»</text><text x="501.1846" y="173.5889" fill="#000000" font-size="14" lengthAdjust="spacing" textLength="125.6309" font-weight="700" font-family="Arial">Navegador Web</text></g><!--cluster AppSrv--><g class="cluster" data-qualified-name="AppSrv" id="ent0007" data-source-line="26"><polygon points="72,382.1869,82,372.1869,454,372.1869,454,610.0769,444,620.0769,72,620.0769,72,382.1869" fill="#E8F5E9" style="stroke:#181818;stroke-width:1;stroke-linejoin:miter;stroke-miterlimit:10;"/><line x1="444" y1="382.1869" x2="454" y2="372.1869" style="stroke:#181818;stroke-width:1;"/><line x1="72" y1="382.1869" x2="444" y2="382.1869" style="stroke:#181818;stroke-width:1;"/><line x1="444" y1="382.1869" x2="444" y2="620.0769" style="stroke:#181818;stroke-width:1;"/><text x="224.3384" y="398.182" fill="#000000" font-size="14" lengthAdjust="spacing" textLength="69.3232" font-weight="700" font-family="Arial">«device»</text><text x="173.1099" y="414.4789" fill="#000000" font-size="14" lengthAdjust="spacing" textLength="171.7803" font-weight="700" font-family="Arial">Servidor de Aplicação</text></g><!--cluster JVM--><g class="cluster" data-qualified-name="AppSrv.JVM" id="ent0008" data-source-line="27"><polygon points="104,454.1869,114,444.1869,414,444.1869,414,578.0769,404,588.0769,104,588.0769,104,454.1869" fill="#C8E6C9" style="stroke:#181818;stroke-width:1;stroke-linejoin:miter;stroke-miterlimit:10;"/><line x1="404" y1="454.1869" x2="414" y2="444.1869" style="stroke:#181818;stroke-width:1;"/><line x1="104" y1="454.1869" x2="404" y2="454.1869" style="stroke:#181818;stroke-width:1;"/><line x1="404" y1="454.1869" x2="404" y2="588.0769" style="stroke:#181818;stroke-width:1;"/><text x="156.9316" y="470.182" fill="#000000" font-size="14" lengthAdjust="spacing" textLength="196.1367" font-weight="700" font-family="Arial">«executionEnvironment»</text><text x="137.8354" y="486.4789" fill="#000000" font-size="14" lengthAdjust="spacing" textLength="234.3291" font-weight="700" font-family="Arial">Java Virtual Machine (JVM 25)</text></g><!--cluster DBSrv--><g class="cluster" data-qualified-name="DBSrv" id="ent0010" data-source-line="33"><polygon points="110,695.0769,120,685.0769,454,685.0769,454,912.3769,444,922.3769,110,922.3769,110,695.0769" fill="#FFF3E0" style="stroke:#181818;stroke-width:1;stroke-linejoin:miter;stroke-miterlimit:10;"/><line x1="444" y1="695.0769" x2="454" y2="685.0769" style="stroke:#181818;stroke-width:1;"/><line x1="110" y1="695.0769" x2="444" y2="695.0769" style="stroke:#181818;stroke-width:1;"/><line x1="444" y1="695.0769" x2="444" y2="922.3769" style="stroke:#181818;stroke-width:1;"/><text x="243.3384" y="711.072" fill="#000000" font-size="14" lengthAdjust="spacing" textLength="69.3232" font-weight="700" font-family="Arial">«device»</text><text x="166.7383" y="727.3689" fill="#000000" font-size="14" lengthAdjust="spacing" textLength="222.5234" font-weight="700" font-family="Arial">Servidor de Banco de Dados</text></g><!--cluster PostgreEnv--><g class="cluster" data-qualified-name="DBSrv.PostgreEnv" id="ent0011" data-source-line="34"><polygon points="142,767.0769,152,757.0769,414,757.0769,414,880.3769,404,890.3769,142,890.3769,142,767.0769" fill="#FFE0B2" style="stroke:#181818;stroke-width:1;stroke-linejoin:miter;stroke-miterlimit:10;"/><line x1="404" y1="767.0769" x2="414" y2="757.0769" style="stroke:#181818;stroke-width:1;"/><line x1="142" y1="767.0769" x2="404" y2="767.0769" style="stroke:#181818;stroke-width:1;"/><line x1="404" y1="767.0769" x2="404" y2="890.3769" style="stroke:#181818;stroke-width:1;"/><text x="175.9316" y="783.072" fill="#000000" font-size="14" lengthAdjust="spacing" textLength="196.1367" font-weight="700" font-family="Arial">«executionEnvironment»</text><text x="208.1768" y="799.3689" fill="#000000" font-size="14" lengthAdjust="spacing" textLength="131.6465" font-weight="700" font-family="Arial">PostgreSQL 18.4</text><text x="212.0015" y="815.6657" fill="#000000" font-size="14" lengthAdjust="spacing" textLength="123.9971" font-weight="700" font-family="Arial">(Última Versão)</text></g><!--entity Chrome--><g class="entity" data-qualified-name="PC1.Nav1.Chrome" id="ent0003" data-source-line="15"><rect x="86.35" y="187.2969" width="195.2998" height="71.8906" fill="#FFFFFF" style="stroke:#181818;stroke-width:0.5;" rx="2.5" ry="2.5"/><polygon points="264.6498,192.2969,264.6498,206.2969,276.6498,206.2969,276.6498,198.2969,270.6498,192.2969,264.6498,192.2969" fill="#FFFFFF" style="stroke:#181818;stroke-width:0.5;stroke-linejoin:miter;stroke-miterlimit:10;"/><line x1="270.6498" y1="192.2969" x2="270.6498" y2="198.2969" style="stroke:#181818;stroke-width:0.5;"/><line x1="276.6498" y1="198.2969" x2="270.6498" y2="198.2969" style="stroke:#181818;stroke-width:0.5;"/><text x="96.35" y="213.292" fill="#000000" font-size="14" lengthAdjust="spacing" textLength="67.5391" font-family="Arial">«artifact»</text><text x="96.35" y="229.5889" fill="#000000" font-size="14" lengthAdjust="spacing" textLength="165.2998" font-family="Arial">Google Chrome 122.0+</text><text x="96.35" y="245.8857" fill="#000000" font-size="14" lengthAdjust="spacing" textLength="118.5898" font-family="Arial">(React Frontend)</text></g><!--entity Firefox--><g class="entity" data-qualified-name="PC2.Nav2.Firefox" id="ent0006" data-source-line="21"><rect x="474.48" y="187.2969" width="187.042" height="71.8906" fill="#FFFFFF" style="stroke:#181818;stroke-width:0.5;" rx="2.5" ry="2.5"/><polygon points="644.522,192.2969,644.522,206.2969,656.522,206.2969,656.522,198.2969,650.522,192.2969,644.522,192.2969" fill="#FFFFFF" style="stroke:#181818;stroke-width:0.5;stroke-linejoin:miter;stroke-miterlimit:10;"/><line x1="650.522" y1="192.2969" x2="650.522" y2="198.2969" style="stroke:#181818;stroke-width:0.5;"/><line x1="656.522" y1="198.2969" x2="650.522" y2="198.2969" style="stroke:#181818;stroke-width:0.5;"/><text x="484.48" y="213.292" fill="#000000" font-size="14" lengthAdjust="spacing" textLength="67.5391" font-family="Arial">«artifact»</text><text x="484.48" y="229.5889" fill="#000000" font-size="14" lengthAdjust="spacing" textLength="157.042" font-family="Arial">Mozilla Firefox 123.0+</text><text x="484.48" y="245.8857" fill="#000000" font-size="14" lengthAdjust="spacing" textLength="118.5898" font-family="Arial">(React Frontend)</text></g><!--entity Backend--><g class="entity" data-qualified-name="AppSrv.JVM.Backend" id="ent0009" data-source-line="28"><rect x="170.87" y="500.1869" width="176.2617" height="71.8906" fill="#FFFFFF" style="stroke:#181818;stroke-width:0.5;" rx="2.5" ry="2.5"/><polygon points="330.1317,505.1869,330.1317,519.1869,342.1317,519.1869,342.1317,511.1869,336.1317,505.1869,330.1317,505.1869" fill="#FFFFFF" style="stroke:#181818;stroke-width:0.5;stroke-linejoin:miter;stroke-miterlimit:10;"/><line x1="336.1317" y1="505.1869" x2="336.1317" y2="511.1869" style="stroke:#181818;stroke-width:0.5;"/><line x1="342.1317" y1="511.1869" x2="336.1317" y2="511.1869" style="stroke:#181818;stroke-width:0.5;"/><text x="180.87" y="526.182" fill="#000000" font-size="14" lengthAdjust="spacing" textLength="67.5391" font-family="Arial">«artifact»</text><text x="180.87" y="542.4789" fill="#000000" font-size="14" lengthAdjust="spacing" textLength="146.2617" font-family="Arial">deu-branco-api 0.0.1</text><text x="180.87" y="558.7757" fill="#000000" font-size="14" lengthAdjust="spacing" textLength="132.8496" font-family="Arial">(Spring Boot 4.0.6)</text></g><!--entity DB--><g class="entity" data-qualified-name="DBSrv.PostgreEnv.DB" id="ent0012" data-source-line="35"><path d="M218.25,839.0769 C218.25,829.0769 278.002,829.0769 278.002,829.0769 C278.002,829.0769 337.7539,829.0769 337.7539,839.0769 L337.7539,864.3738 C337.7539,874.3738 278.002,874.3738 278.002,874.3738 C278.002,874.3738 218.25,874.3738 218.25,864.3738 L218.25,839.0769" style="stroke:#181818;stroke-width:0.5;" fill="#FFFFFF"/><path d="M218.25,839.0769 C218.25,849.0769 278.002,849.0769 278.002,849.0769 C278.002,849.0769 337.7539,849.0769 337.7539,839.0769" style="stroke:#181818;stroke-width:0.5;" fill="none"/><text x="228.25" y="866.072" fill="#000000" font-size="14" lengthAdjust="spacing" textLength="99.5039" font-family="Arial">deubranco_db</text></g><!--link PC1 to AppSrv--><g class="link" data-entity-1="ent0001" data-entity-2="ent0007" id="lnk13" data-source-line="40" data-link-type="dependency"><path d="M361.5599,255.8572 C361.7776,256.5773 360.8758,253.5945 361.1004,254.3375 C362.8976,260.2819 364.9136,266.9502 367.1048,274.1978 C371.4873,288.693 376.5703,305.5049 382.0035,323.4751 C384.7202,332.4602 387.5244,341.7349 390.3723,351.1543 C391.7963,355.864 393.2312,360.6099 394.6716,365.3738 C395.0317,366.5648 395.3922,367.7569 395.7529,368.9499 C395.9332,369.5464 396.1136,370.1431 396.2941,370.74 C396.3843,371.0384 396.4746,371.3369 396.5648,371.6354 C396.61,371.7847 395.208,367.1479 395.2532,367.2972" style="stroke:#181818;stroke-width:1;" fill="none" id="PC1-AppSrv"/><polygon points="360.1129,251.0711,358.8886,260.8436,361.5599,255.8572,366.5463,258.5285,360.1129,251.0711" fill="#181818" style="stroke:#181818;stroke-width:1;stroke-linejoin:miter;stroke-miterlimit:10;"/><polygon points="396.7002,372.0832,397.9243,362.3107,395.2532,367.2972,390.2667,364.626,396.7002,372.0832" fill="#181818" style="stroke:#181818;stroke-width:1;stroke-linejoin:miter;stroke-miterlimit:10;"/><text x="389" y="344.2538" fill="#000000" font-size="13" lengthAdjust="spacing" textLength="127.4736" font-family="Arial">HTTPS / WebSocket</text></g><!--link PC2 to AppSrv--><g class="link" data-entity-1="ent0004" data-entity-2="ent0007" id="lnk14" data-source-line="41" data-link-type="dependency"><path d="M687.0138,311.4174 C683.2904,316.7417 681.9463,318.3119 678,323.1869 C634.755,376.6219 577.8775,428.8019 531.2625,468.0169 C507.955,487.6244 487.2131,503.9906 472.0238,515.6519 C468.2264,518.5672 464.7761,521.1884 461.7195,523.4928 C460.1912,524.6449 458.7613,525.7178 457.4357,526.7087 C456.7729,527.2041 456.1361,527.679 455.5262,528.133 C455.2212,528.36 454.9229,528.5818 454.6314,528.7983 C454.4857,528.9066 458.3569,526.034 458.2146,526.1396" style="stroke:#181818;stroke-width:1;" fill="none" id="PC2-AppSrv"/><polygon points="689.8717,307.3146,681.4453,312.4133,687.0138,311.4174,688.0097,316.9859,689.8717,307.3146" fill="#181818" style="stroke:#181818;stroke-width:1;stroke-linejoin:miter;stroke-miterlimit:10;"/><polygon points="454.1993,529.1191,463.8104,526.9681,458.2146,526.1396,459.0431,520.5437,454.1993,529.1191" fill="#181818" style="stroke:#181818;stroke-width:1;stroke-linejoin:miter;stroke-miterlimit:10;"/><text x="668" y="344.2538" fill="#000000" font-size="13" lengthAdjust="spacing" textLength="127.4736" font-family="Arial">HTTPS / WebSocket</text></g><!--link AppSrv to DBSrv--><g class="link" data-entity-1="ent0007" data-entity-2="ent0010" id="lnk15" data-source-line="42" data-link-type="dependency"><path d="M446,625.6135 C446,629.981 446,632.6979 446,637.2296 C446,646.2931 446,655.6487 446,665.1502 C446,669.901 446,674.6883 446,679.4938 C446,680.6952 446,681.8977 446,683.1011 C446,683.7028 446,679.3047 446,679.9068" style="stroke:#181818;stroke-width:1;" fill="none" id="AppSrv-DBSrv"/><polygon points="446,620.6135,442,629.6135,446,625.6135,450,629.6135,446,620.6135" fill="#181818" style="stroke:#181818;stroke-width:1;stroke-linejoin:miter;stroke-miterlimit:10;"/><polygon points="446,684.9068,450,675.9068,446,679.9068,442,675.9068,446,684.9068" fill="#181818" style="stroke:#181818;stroke-width:1;stroke-linejoin:miter;stroke-miterlimit:10;"/><text x="447" y="657.1438" fill="#000000" font-size="13" lengthAdjust="spacing" textLength="87.0264" font-family="Arial">TCP/IP (JDBC)</text></g><g class="legend" data-source-line="45"><rect x="540.7754" y="953.3769" width="251.6982" height="79.1875" fill="#DDDDDD" style="stroke:#000000;stroke-width:1;" rx="2.5" ry="2.5"/><text x="550.6494" y="973.372" fill="#000000" font-size="14" lengthAdjust="spacing" textLength="26.7969" font-weight="700" font-family="Arial">Cor</text><text x="587.1943" y="973.372" fill="#000000" font-size="14" lengthAdjust="spacing" textLength="63.2256" font-weight="700" font-family="Arial">Camada</text><rect x="545.7754" y="976.6738" width="36.5449" height="16.2969" fill="#B3E5FC" style="stroke:none;stroke-width:1;"/><text x="545.7754" y="989.6689" fill="#000000" font-size="14" lengthAdjust="spacing" textLength="4.4502" font-family="Arial"> </text><text x="586.7705" y="989.6689" fill="#000000" font-size="14" lengthAdjust="spacing" textLength="56.4375" font-family="Arial">Clientes</text><rect x="545.7754" y="992.9706" width="36.5449" height="16.2969" fill="#C8E6C9" style="stroke:none;stroke-width:1;"/><text x="545.7754" y="1005.9657" fill="#000000" font-size="14" lengthAdjust="spacing" textLength="4.4502" font-family="Arial"> </text><text x="586.7705" y="1005.9657" fill="#000000" font-size="14" lengthAdjust="spacing" textLength="151.4023" font-family="Arial">Servidor de aplicação</text><rect x="545.7754" y="1009.2675" width="36.5449" height="16.2969" fill="#FFE0B2" style="stroke:none;stroke-width:1;"/><text x="545.7754" y="1022.2626" fill="#000000" font-size="14" lengthAdjust="spacing" textLength="4.4502" font-family="Arial"> </text><text x="586.7705" y="1022.2626" fill="#000000" font-size="14" lengthAdjust="spacing" textLength="196.2529" font-family="Arial">Servidor de banco de dados</text><line x1="545.7754" y1="960.3769" x2="787.4736" y2="960.3769" style="stroke:#000000;stroke-width:1;"/><line x1="545.7754" y1="976.6738" x2="787.4736" y2="976.6738" style="stroke:#000000;stroke-width:1;"/><line x1="545.7754" y1="992.9706" x2="787.4736" y2="992.9706" style="stroke:#000000;stroke-width:1;"/><line x1="545.7754" y1="1009.2675" x2="787.4736" y2="1009.2675" style="stroke:#000000;stroke-width:1;"/><line x1="545.7754" y1="1025.5644" x2="787.4736" y2="1025.5644" style="stroke:#000000;stroke-width:1;"/><line x1="545.7754" y1="960.3769" x2="545.7754" y2="1025.5644" style="stroke:#000000;stroke-width:1;"/><line x1="582.3203" y1="960.3769" x2="582.3203" y2="1025.5644" style="stroke:#000000;stroke-width:1;"/><line x1="787.4736" y1="960.3769" x2="787.4736" y2="1025.5644" style="stroke:#000000;stroke-width:1;"/></g><?plantuml-src hPJDJjj04CVlVeef70gg71A7841ffFYBWfAGaW0N9BInDyaAPzVQNQUqXHVfjOTAlLPzWhnOPss7XhPHKwa-s2lFn_xdjpEhxXXFYIGpKFfzGl4jMQIpMMAf9ujFnoHBT2Yuxf4PXRPaPDKkHSRZI4XE9JGiwwK9O9mjlYm-2uWfe8agOF7YAzSi8Wg807fFPsc2PW6f56Egb93MYzW4KkYT-y6jsxaCO3keXqxeFxUSN0H13qs7OICuUcuwlsZtJZ0i3CDwKBKipJGMvJCoGQ74Y3d5RGdNf51tsUs03GEcD4MpJpDN4Xu9KuHjsn2etF4xoiVGeIGZaam5xFGMtnHu2QDSKxLhN2qkq6EhsOpfd4MqrRhXPN31u2csTiDthXcFnJi5jIhimUKeupe3nwbKztUt0F7qlTeAWeyMuBDCZzoYJ3F10pvdKl0PIZ2RzSYSJaWi95pJKPu5_zHWswq7ZT0havY7ICt69D8csN9j4fm8CK5KtbGAFEAQaVCAfLvGunlYJfhokD1N-XZ8-EIP7wr7QsC4pYO8dF-3mFa715tnWIK9WP19EXRt2A6-7iBIwJSAHUSCg9mpemKrjzC4sxxWyETMMUETRzHEqu6ShtR-PZZEo9p05PCw8mbqIJGrGx9pTjK5fr6KODRRtc5mu1rjG2UccJtAfyCcAODgfLenlJn89UCJS8NGi8__3ehSBedkaDKcU5oJqonyF3or0Q7d0Vbslll4gBm2DeFK5qfF91syxK3jiBAFzIm-9PhXNN15fS8ZADknSCDWKr1GTPqLO37HsDWAzq541Q7RU5JAMWV04vpUvnSBXRuKMaGYAOituz-qxTRov8_XpN3O7-2SO5yF17BLbfcFl_cKfjoju7CCGw-_Tzh7Dl1TRzTewT097XC1Km31BrzpDIUv7qWscUgybeVNM8FCFtYpOkH3yHkQvS2rSBsy8bUCHRyPu-gHafKH-UbReFxLTxGy_ZZlbmSBXHNoVW00?></g></svg>