<svg xmlns="http://www.w3.org/2000/svg" xmlns:xlink="http://www.w3.org/1999/xlink" version="1.1" data-diagram-type="DESCRIPTION" style="width:1576px;height:375px;background:#FFFFFF;" width="1576px" height="375px" viewBox="0 0 1576 375" zoomAndPan="magnify" preserveAspectRatio="none" contentStyleType="text/css"><?plantuml 1.2026.7beta3?><defs/><g><!--cluster DeuBranco - Visão do Jogador--><g class="cluster" data-qualified-name="DeuBranco - Vis.o do Jogador" id="ent0002" data-source-line="5"><rect x="7" y="128.8" width="1494" height="232.32" fill="none" style="stroke:#181818;stroke-width:1;" rx="2.5" ry="2.5"/><text x="636.5962" y="143.7951" fill="#000000" font-size="14" lengthAdjust="spacing" textLength="234.8076" font-weight="700" font-family="sans-serif">DeuBranco - Visão do Jogador</text></g><!--entity RF001--><g class="entity" data-qualified-name="DeuBranco - Vis.o do Jogador.RF001" id="ent0003" data-source-line="7"><ellipse cx="108.9992" cy="192.0289" rx="85.7092" ry="23.6589" fill="#F1F1F1" style="stroke:#181818;stroke-width:0.5;"/><text x="86.7482" y="184.9285" fill="#000000" font-size="14" lengthAdjust="spacing" textLength="44.502" font-family="sans-serif">RF001</text><text x="43.7536" y="201.2254" fill="#000000" font-size="14" lengthAdjust="spacing" textLength="130.4912" font-family="sans-serif">Autenticar Usuário</text></g><!--entity RF012--><g class="entity" data-qualified-name="DeuBranco - Vis.o do Jogador.RF012" id="ent0004" data-source-line="8"><ellipse cx="312.9997" cy="192.0275" rx="83.2597" ry="23.6775" fill="#F1F1F1" style="stroke:#181818;stroke-width:0.5;"/><text x="290.7488" y="184.9574" fill="#000000" font-size="14" lengthAdjust="spacing" textLength="44.502" font-family="sans-serif">RF012</text><text x="249.7434" y="201.2543" fill="#000000" font-size="14" lengthAdjust="spacing" textLength="126.5127" font-family="sans-serif">Cadastrar Jogador</text></g><!--entity RF006--><g class="entity" data-qualified-name="DeuBranco - Vis.o do Jogador.RF006" id="ent0005" data-source-line="10"><ellipse cx="1106.9978" cy="321.1916" rx="107.6578" ry="23.9316" fill="#F1F1F1" style="stroke:#181818;stroke-width:0.5;"/><text x="1084.7468" y="313.5354" fill="#000000" font-size="14" lengthAdjust="spacing" textLength="44.502" font-family="sans-serif">RF006</text><text x="1021.7434" y="329.8323" fill="#000000" font-size="14" lengthAdjust="spacing" textLength="170.5088" font-family="sans-serif">Criar Partida Multiplayer</text></g><!--entity RF007--><g class="entity" data-qualified-name="DeuBranco - Vis.o do Jogador.RF007" id="ent0006" data-source-line="11"><ellipse cx="552.005" cy="192.029" rx="121.045" ry="26.609" fill="#F1F1F1" style="stroke:#181818;stroke-width:0.5;"/><text x="529.754" y="181.6401" fill="#000000" font-size="14" lengthAdjust="spacing" textLength="44.502" font-family="sans-serif">RF007</text><text x="443.7374" y="197.937" fill="#000000" font-size="14" lengthAdjust="spacing" textLength="216.5352" font-family="sans-serif">Consultar Histórico de Partidas</text></g><!--entity RF008--><g class="entity" data-qualified-name="DeuBranco - Vis.o do Jogador.RF008" id="ent0007" data-source-line="12"><ellipse cx="817.0007" cy="192.0341" rx="109.0207" ry="24.2041" fill="#F1F1F1" style="stroke:#181818;stroke-width:0.5;"/><text x="794.7497" y="184.0991" fill="#000000" font-size="14" lengthAdjust="spacing" textLength="44.502" font-family="sans-serif">RF008</text><text x="729.1213" y="200.396" fill="#000000" font-size="14" lengthAdjust="spacing" textLength="175.7588" font-family="sans-serif">Alterar Estado da Partida</text></g><!--entity RF009--><g class="entity" data-qualified-name="DeuBranco - Vis.o do Jogador.RF009" id="ent0008" data-source-line="13"><ellipse cx="1075.9965" cy="192.0333" rx="115.4165" ry="25.4833" fill="#F1F1F1" style="stroke:#181818;stroke-width:0.5;"/><text x="1053.7455" y="182.7917" fill="#000000" font-size="14" lengthAdjust="spacing" textLength="44.502" font-family="sans-serif">RF009</text><text x="976.7387" y="199.0886" fill="#000000" font-size="14" lengthAdjust="spacing" textLength="198.5156" font-family="sans-serif">Cancelar Partida Multiplayer</text></g><!--entity RF010--><g class="entity" data-qualified-name="DeuBranco - Vis.o do Jogador.RF010" id="ent0009" data-source-line="14"><ellipse cx="1374.0046" cy="321.1897" rx="93.5346" ry="23.6097" fill="#F1F1F1" style="stroke:#181818;stroke-width:0.5;"/><text x="1351.7537" y="314.009" fill="#000000" font-size="14" lengthAdjust="spacing" textLength="44.502" font-family="sans-serif">RF010</text><text x="1302.4153" y="330.3059" fill="#000000" font-size="14" lengthAdjust="spacing" textLength="143.1787" font-family="sans-serif">Responder Pergunta</text></g><!--entity RF011--><g class="entity" data-qualified-name="DeuBranco - Vis.o do Jogador.RF011" id="ent0010" data-source-line="15"><ellipse cx="1355.9967" cy="192.0293" rx="129.1467" ry="28.2293" fill="#F1F1F1" style="stroke:#181818;stroke-width:0.5;"/><text x="1333.7458" y="180.3809" fill="#000000" font-size="14" lengthAdjust="spacing" textLength="44.502" font-family="sans-serif">RF011</text><text x="1236.6105" y="196.6778" fill="#000000" font-size="14" lengthAdjust="spacing" textLength="238.7725" font-family="sans-serif">Visualizar Classificação da Partida</text></g><!--entity Jogador--><g class="entity" data-qualified-name="Jogador" id="ent0001" data-source-line="3"><ellipse cx="978.0041" cy="14" rx="8" ry="8" fill="#F1F1F1" style="stroke:#181818;stroke-width:0.5;"/><path d="M978.0041,22 L978.0041,49 M965.0041,30 L991.0041,30 M978.0041,49 L965.0041,64 M978.0041,49 L991.0041,64" style="stroke:#181818;stroke-width:0.5;" fill="none"/><text x="951.32" y="78.4951" fill="#000000" font-size="14" lengthAdjust="spacing" textLength="53.3682" font-family="sans-serif">Jogador</text></g><!--link Jogador to RF001--><g class="link" data-entity-1="ent0001" data-entity-2="ent0003" id="lnk11" data-source-line="18" data-link-type="dependency"><path d="M950.88,45.55 C831.49,49.8 352.35,69.76 212,120.8 C182.51,131.52 157.2341,149.4447 137.5241,165.7347" style="stroke:#181818;stroke-width:1;" fill="none" id="Jogador-to-RF001"/><polygon points="133.67,168.92,143.1556,166.2697,137.5241,165.7347,138.059,160.1032,133.67,168.92" fill="#181818" style="stroke:#181818;stroke-width:1;stroke-linejoin:miter;stroke-miterlimit:10;"/></g><!--link Jogador to RF012--><g class="link" data-entity-1="ent0001" data-entity-2="ent0004" id="lnk12" data-source-line="19" data-link-type="dependency"><path d="M950.99,46.59 C852.54,53.9 513.46,81.47 413,120.8 C384.36,132.01 359.9024,149.8267 340.7624,165.9667" style="stroke:#181818;stroke-width:1;" fill="none" id="Jogador-to-RF012"/><polygon points="336.94,169.19,346.3989,166.446,340.7624,165.9667,341.2417,160.3302,336.94,169.19" fill="#181818" style="stroke:#181818;stroke-width:1;stroke-linejoin:miter;stroke-miterlimit:10;"/></g><!--link Jogador to RF006--><g class="link" data-entity-1="ent0001" data-entity-2="ent0005" id="lnk13" data-source-line="20" data-link-type="dependency"><path d="M1004.93,44.17 C1102.79,43.04 1437.31,44.89 1503,120.8 C1531.93,154.22 1523.26,180.97 1503,220.26 C1486.5,252.26 1470.32,253.6 1437,267.26 C1425.79,271.85 1293.7143,292.2361 1199.8043,306.3661" style="stroke:#181818;stroke-width:1;" fill="none" id="Jogador-to-RF006"/><polygon points="1194.86,307.11,1204.355,309.7264,1199.8043,306.3661,1203.1647,301.8154,1194.86,307.11" fill="#181818" style="stroke:#181818;stroke-width:1;stroke-linejoin:miter;stroke-miterlimit:10;"/></g><!--link Jogador to RF007--><g class="link" data-entity-1="ent0001" data-entity-2="ent0006" id="lnk14" data-source-line="21" data-link-type="dependency"><path d="M951.2,49.75 C899.59,60 783.25,85.2 690,120.8 C656.72,133.5 625.2993,149.4572 598.5093,164.2172" style="stroke:#181818;stroke-width:1;" fill="none" id="Jogador-to-RF007"/><polygon points="594.13,166.63,603.943,165.7904,598.5093,164.2172,600.0825,158.7835,594.13,166.63" fill="#181818" style="stroke:#181818;stroke-width:1;stroke-linejoin:miter;stroke-miterlimit:10;"/></g><!--link Jogador to RF008--><g class="link" data-entity-1="ent0001" data-entity-2="ent0007" id="lnk15" data-source-line="22" data-link-type="dependency"><path d="M951.05,69.15 C920.71,96.74 875.479,137.8559 845.879,164.7759" style="stroke:#181818;stroke-width:1;" fill="none" id="Jogador-to-RF008"/><polygon points="842.18,168.14,851.5295,165.0438,845.879,164.7759,846.147,159.1254,842.18,168.14" fill="#181818" style="stroke:#181818;stroke-width:1;stroke-linejoin:miter;stroke-miterlimit:10;"/></g><!--link Jogador to RF009--><g class="link" data-entity-1="ent0001" data-entity-2="ent0008" id="lnk16" data-source-line="23" data-link-type="dependency"><path d="M1002.98,81.97 C1020.79,108.56 1041.4374,139.4059 1056.8974,162.4859" style="stroke:#181818;stroke-width:1;" fill="none" id="Jogador-to-RF009"/><polygon points="1059.68,166.64,1057.9946,156.9364,1056.8974,162.4859,1051.3479,161.3886,1059.68,166.64" fill="#181818" style="stroke:#181818;stroke-width:1;stroke-linejoin:miter;stroke-miterlimit:10;"/></g><!--link Jogador to RF010--><g class="link" data-entity-1="ent0001" data-entity-2="ent0009" id="lnk17" data-source-line="24" data-link-type="dependency"><path d="M1004.94,45.94 C1112.86,51.44 1509.5,74.68 1538,120.8 C1561.24,158.4 1556.68,180.19 1538,220.26 C1518.56,261.96 1477.081,285.9302 1438.681,300.8402" style="stroke:#181818;stroke-width:1;" fill="none" id="Jogador-to-RF010"/><polygon points="1434.02,302.65,1443.8576,303.1212,1438.681,300.8402,1440.9619,295.6636,1434.02,302.65" fill="#181818" style="stroke:#181818;stroke-width:1;stroke-linejoin:miter;stroke-miterlimit:10;"/></g><!--link Jogador to RF011--><g class="link" data-entity-1="ent0001" data-entity-2="ent0010" id="lnk18" data-source-line="25" data-link-type="dependency"><path d="M1005.08,52.35 C1048.63,65.02 1136.71,91.75 1209,120.8 C1242.2,134.14 1274.0075,149.2046 1302.2175,163.3046" style="stroke:#181818;stroke-width:1;" fill="none" id="Jogador-to-RF011"/><polygon points="1306.69,165.54,1300.4279,157.9383,1302.2175,163.3046,1296.8512,165.0942,1306.69,165.54" fill="#181818" style="stroke:#181818;stroke-width:1;stroke-linejoin:miter;stroke-miterlimit:10;"/></g><!--link RF009 to RF006--><g class="link" data-entity-1="ent0008" data-entity-2="ent0005" id="lnk19" data-source-line="27" data-link-type="dependency"><path d="M1082.05,217.85 C1087.65,240.83 1094.7359,269.8822 1100.1959,292.2822" style="stroke:#181818;stroke-width:1;stroke-dasharray:7,7;" fill="none" id="RF009-to-RF006"/><polygon points="1101.38,297.14,1103.1349,287.4487,1100.1959,292.2822,1095.3624,289.3433,1101.38,297.14" fill="#181818" style="stroke:#181818;stroke-width:1;stroke-linejoin:miter;stroke-miterlimit:10;"/><text x="1094" y="263.3269" fill="#000000" font-size="13" lengthAdjust="spacing" textLength="61.1851" font-family="sans-serif">«extend»</text></g><!--link RF011 to RF010--><g class="link" data-entity-1="ent0010" data-entity-2="ent0009" id="lnk20" data-source-line="28" data-link-type="dependency"><path d="M1359.91,220.62 C1363.15,243.56 1367.0203,270.8592 1370.0603,292.3692" style="stroke:#181818;stroke-width:1;stroke-dasharray:7,7;" fill="none" id="RF011-to-RF010"/><polygon points="1370.76,297.32,1373.4612,287.8488,1370.0603,292.3692,1365.5399,288.9683,1370.76,297.32" fill="#181818" style="stroke:#181818;stroke-width:1;stroke-linejoin:miter;stroke-miterlimit:10;"/><text x="1367" y="263.3269" fill="#000000" font-size="13" lengthAdjust="spacing" textLength="61.1851" font-family="sans-serif">«extend»</text></g><?plantuml-src XPBBIaCn48RtUOgX-vQaYrwa5BGg8WXIq5KtuqaiWPYKP09Uy674XG_W8vmNSyxnz8YDO9R__DzSGs475E0k48K7q3QQYcpmGc158S9bsA8EKOX6Hxzr1WQd9fz4z5M08TpQLBy7q67l7C2B4C0l9rDXOllwN4grySUPZ2TROOIRbEktQCC0C44RBWWrtlWLQamKCVxa_lQhyHyb9Wn4o-PhZ6GrmbLsP7SEdqmFoad9JPaBFh6PsGkRgFwCbcVJPfyfzVYqn6SycIFJT7cMYBi4Bjs1FJShkNapdw-C-wVZURaQkV5hatR1QyEiYTligQ-bP0dmzlbE6PrzvcehXodPUxv4_T7UhkXNAV4gHBTq60wNtP4E53x3eMTIADD2cHNAlCWi2qK9qLfXDEfAmH4i5kQHVvLUBaNhsGUL_1Ny0W00?></g></svg>