<svg xmlns="http://www.w3.org/2000/svg" xmlns:xlink="http://www.w3.org/1999/xlink" version="1.1" data-diagram-type="DESCRIPTION" style="width:679px;height:431px;background:#FFFFFF;" width="679px" height="431px" viewBox="0 0 679 431" zoomAndPan="magnify" preserveAspectRatio="none" contentStyleType="text/css"><?plantuml 1.2026.7beta3?><defs/><g><!--cluster DeuBranco - Visão do Administrador--><g class="cluster" data-qualified-name="DeuBranco - Vis.o do Administrador" id="ent0002" data-source-line="5"><rect x="152.08" y="7" width="513.07" height="345" fill="none" style="stroke:#181818;stroke-width:1;" rx="2.5" ry="2.5"/><text x="265.1663" y="21.9951" fill="#000000" font-size="14" lengthAdjust="spacing" textLength="286.8975" font-weight="700" font-family="sans-serif">DeuBranco - Visão do Administrador</text></g><!--entity RF001--><g class="entity" data-qualified-name="DeuBranco - Vis.o do Administrador.RF001" id="ent0003" data-source-line="7"><ellipse cx="257.5892" cy="65.9989" rx="85.7092" ry="23.6589" fill="#F1F1F1" style="stroke:#181818;stroke-width:0.5;"/><text x="235.3382" y="58.8985" fill="#000000" font-size="14" lengthAdjust="spacing" textLength="44.502" font-family="sans-serif">RF001</text><text x="192.3436" y="75.1954" fill="#000000" font-size="14" lengthAdjust="spacing" textLength="130.4912" font-family="sans-serif">Autenticar Usuário</text></g><!--entity RF002--><g class="entity" data-qualified-name="DeuBranco - Vis.o do Administrador.RF002" id="ent0004" data-source-line="8"><ellipse cx="257.5898" cy="148.0032" rx="89.5098" ry="23.6332" fill="#F1F1F1" style="stroke:#181818;stroke-width:0.5;"/><text x="235.3388" y="140.8611" fill="#000000" font-size="14" lengthAdjust="spacing" textLength="44.502" font-family="sans-serif">RF002</text><text x="189.2612" y="157.1579" fill="#000000" font-size="14" lengthAdjust="spacing" textLength="136.6572" font-family="sans-serif">Cadastrar Pergunta</text></g><!--entity RF003--><g class="entity" data-qualified-name="DeuBranco - Vis.o do Administrador.RF003" id="ent0005" data-source-line="9"><ellipse cx="560.6233" cy="300.9995" rx="88.5233" ry="23.6395" fill="#F1F1F1" style="stroke:#181818;stroke-width:0.5;"/><text x="538.3724" y="293.8677" fill="#000000" font-size="14" lengthAdjust="spacing" textLength="44.502" font-family="sans-serif">RF003</text><text x="493.0945" y="310.1645" fill="#000000" font-size="14" lengthAdjust="spacing" textLength="135.0576" font-family="sans-serif">Consultar Pergunta</text></g><!--entity RF004--><g class="entity" data-qualified-name="DeuBranco - Vis.o do Administrador.RF004" id="ent0006" data-source-line="10"><ellipse cx="257.589" cy="229.9988" rx="76.569" ry="23.7388" fill="#F1F1F1" style="stroke:#181818;stroke-width:0.5;"/><text x="235.338" y="223.0282" fill="#000000" font-size="14" lengthAdjust="spacing" textLength="44.502" font-family="sans-serif">RF004</text><text x="199.7774" y="239.3251" fill="#000000" font-size="14" lengthAdjust="spacing" textLength="115.623" font-family="sans-serif">Alterar Pergunta</text></g><!--entity RF005--><g class="entity" data-qualified-name="DeuBranco - Vis.o do Administrador.RF005" id="ent0007" data-source-line="11"><ellipse cx="257.589" cy="312.0016" rx="76.309" ry="23.7416" fill="#F1F1F1" style="stroke:#181818;stroke-width:0.5;"/><text x="235.338" y="305.0354" fill="#000000" font-size="14" lengthAdjust="spacing" textLength="44.502" font-family="sans-serif">RF005</text><text x="199.9894" y="321.3323" fill="#000000" font-size="14" lengthAdjust="spacing" textLength="115.1992" font-family="sans-serif">Excluir Pergunta</text></g><!--entity Administrador--><g class="entity" data-qualified-name="Administrador" id="ent0001" data-source-line="3"><ellipse cx="55.54" cy="200.35" rx="8" ry="8" fill="#F1F1F1" style="stroke:#181818;stroke-width:0.5;"/><path d="M55.54,208.35 L55.54,235.35 M42.54,216.35 L68.54,216.35 M55.54,235.35 L42.54,250.35 M55.54,235.35 L68.54,250.35" style="stroke:#181818;stroke-width:0.5;" fill="none"/><text x="6" y="264.8451" fill="#000000" font-size="14" lengthAdjust="spacing" textLength="99.0801" font-family="sans-serif">Administrador</text></g><!--link Administrador to RF001--><g class="link" data-entity-1="ent0001" data-entity-2="ent0003" id="lnk8" data-source-line="14" data-link-type="dependency"><path d="M75.87,191.39 C91.11,164.43 114.68,129.39 144.08,107 C158.39,96.1 171.1676,89.5893 188.0476,83.4893" style="stroke:#181818;stroke-width:1;" fill="none" id="Administrador-to-RF001"/><polygon points="192.75,81.79,182.9263,81.0869,188.0476,83.4893,185.6452,88.6107,192.75,81.79" fill="#181818" style="stroke:#181818;stroke-width:1;stroke-linejoin:miter;stroke-miterlimit:10;"/></g><!--link Administrador to RF002--><g class="link" data-entity-1="ent0001" data-entity-2="ent0004" id="lnk9" data-source-line="15" data-link-type="dependency"><path d="M105.28,206.24 C117.82,200.38 131.37,194.27 144.08,189 C162.7,181.26 178.6661,175.1952 197.1461,168.5352" style="stroke:#181818;stroke-width:1;" fill="none" id="Administrador-to-RF002"/><polygon points="201.85,166.84,192.0269,166.1283,197.1461,168.5352,194.7392,173.6545,201.85,166.84" fill="#181818" style="stroke:#181818;stroke-width:1;stroke-linejoin:miter;stroke-miterlimit:10;"/></g><!--link Administrador to RF003--><g class="link" data-entity-1="ent0001" data-entity-2="ent0005" id="lnk10" data-source-line="16" data-link-type="dependency"><path d="M72.16,268.6 C86.22,297.66 109.95,335.4 144.08,353 C267.34,416.56 433.0447,358.5465 511.8447,323.8165" style="stroke:#181818;stroke-width:1;" fill="none" id="Administrador-to-RF003"/><polygon points="516.42,321.8,506.5712,321.7695,511.8447,323.8165,509.7976,329.09,516.42,321.8" fill="#181818" style="stroke:#181818;stroke-width:1;stroke-linejoin:miter;stroke-miterlimit:10;"/></g><!--link Administrador to RF004--><g class="link" data-entity-1="ent0001" data-entity-2="ent0006" id="lnk11" data-source-line="17" data-link-type="dependency"><path d="M105.48,230 C128.15,230 150.61,230 175.87,230" style="stroke:#181818;stroke-width:1;" fill="none" id="Administrador-to-RF004"/><polygon points="180.87,230,171.87,226,175.87,230,171.87,234,180.87,230" fill="#181818" style="stroke:#181818;stroke-width:1;stroke-linejoin:miter;stroke-miterlimit:10;"/></g><!--link Administrador to RF005--><g class="link" data-entity-1="ent0001" data-entity-2="ent0007" id="lnk12" data-source-line="18" data-link-type="dependency"><path d="M105.28,253.75 C117.82,259.61 131.37,265.72 144.08,271 C163.85,279.21 181.2228,285.764 200.5428,292.684" style="stroke:#181818;stroke-width:1;" fill="none" id="Administrador-to-RF005"/><polygon points="205.25,294.37,198.1259,287.5695,200.5428,292.684,195.4283,295.1009,205.25,294.37" fill="#181818" style="stroke:#181818;stroke-width:1;stroke-linejoin:miter;stroke-miterlimit:10;"/></g><!--link RF004 to RF003--><g class="link" data-entity-1="ent0006" data-entity-2="ent0005" id="lnk13" data-source-line="20" data-link-type="dependency"><path d="M319.51,244.36 C369.85,256.24 436.3434,271.9226 488.1734,284.1426" style="stroke:#181818;stroke-width:1;stroke-dasharray:7,7;" fill="none" id="RF004-to-RF003"/><polygon points="493.04,285.29,485.1981,279.3314,488.1734,284.1426,483.3623,287.1179,493.04,285.29" fill="#181818" style="stroke:#181818;stroke-width:1;stroke-linejoin:miter;stroke-miterlimit:10;"/><text x="378.1" y="256.0669" fill="#000000" font-size="13" lengthAdjust="spacing" textLength="63.0068" font-family="sans-serif">«include»</text></g><!--link RF005 to RF003--><g class="link" data-entity-1="ent0007" data-entity-2="ent0005" id="lnk14" data-source-line="21" data-link-type="dependency"><path d="M333.78,309.25 C375.92,307.71 423.6833,305.962 467.6133,304.362" style="stroke:#181818;stroke-width:1;stroke-dasharray:7,7;" fill="none" id="RF005-to-RF003"/><polygon points="472.61,304.18,463.4704,300.5102,467.6133,304.362,463.7616,308.5049,472.61,304.18" fill="#181818" style="stroke:#181818;stroke-width:1;stroke-linejoin:miter;stroke-miterlimit:10;"/><text x="378.1" y="302.0669" fill="#000000" font-size="13" lengthAdjust="spacing" textLength="63.0068" font-family="sans-serif">«include»</text></g><?plantuml-src TP1DQiD038NtEeNmtY7rpwO4Gzecwr9eLzw8cQapu6f0eu52wM5AZvABTM928TZMyhttFIIDxbrH0ueVJehMYpFg0mEGqI2ujn-UVLGX6mJWuX8FeyFYoQK78JO1ItppyVmRq8RRV85V09WdHMSePkZbkDtUzRnFwbYz8S7NcCu_uaE1576ovqJLyoDPkhGAFZiP4Ylz0zKSg3CGEAPHbu1w3ZHvfr7TOdypZxSz7pxDcFn2l8LlW9itO5bsrzEMzMf5hrVqPaLl0IORDvjh0TxZRkSvhsfTrqrkk-R-0G00?></g></svg>